<mxfile host="app.diagrams.net" agent="Mozilla/5.0 (Windows NT 10.0; Win64; x64) AppleWebKit/537.36 (KHTML, like Gecko) Chrome/141.0.0.0 Safari/537.36" version="28.2.5">
  <diagram name="Page-1" id="82mVbNX55Fa13amxZg5S">
    <mxGraphModel dx="969" dy="618" grid="1" gridSize="10" guides="1" tooltips="1" connect="1" arrows="1" fold="1" page="1" pageScale="1" pageWidth="850" pageHeight="1100" math="0" shadow="0">
      <root>
        <mxCell id="0" />
        <mxCell id="1" parent="0" />
        <mxCell id="lyk3oRnUd4s0o-xwYm5H-1" value="&lt;font style=&quot;font-size: 16px;&quot;&gt;User&lt;/font&gt;" style="rounded=0;whiteSpace=wrap;html=1;" parent="1" vertex="1">
          <mxGeometry x="540" y="30" width="120" height="60" as="geometry" />
        </mxCell>
        <mxCell id="lyk3oRnUd4s0o-xwYm5H-2" value="&lt;font style=&quot;font-size: 16px;&quot;&gt;Reviews&lt;/font&gt;" style="rounded=0;whiteSpace=wrap;html=1;" parent="1" vertex="1">
          <mxGeometry x="530" y="400" width="120" height="60" as="geometry" />
        </mxCell>
        <mxCell id="lyk3oRnUd4s0o-xwYm5H-3" value="&lt;font style=&quot;font-size: 16px;&quot;&gt;Movies&lt;/font&gt;" style="rounded=0;whiteSpace=wrap;html=1;" parent="1" vertex="1">
          <mxGeometry x="540" y="210" width="120" height="60" as="geometry" />
        </mxCell>
        <mxCell id="lyk3oRnUd4s0o-xwYm5H-9" style="edgeStyle=orthogonalEdgeStyle;rounded=0;orthogonalLoop=1;jettySize=auto;html=1;exitX=0.5;exitY=0.5;exitDx=0;exitDy=0;exitPerimeter=0;entryX=0.5;entryY=1;entryDx=0;entryDy=0;" parent="1" source="lyk3oRnUd4s0o-xwYm5H-4" target="lyk3oRnUd4s0o-xwYm5H-7" edge="1">
          <mxGeometry relative="1" as="geometry" />
        </mxCell>
        <mxCell id="lyk3oRnUd4s0o-xwYm5H-10" value="&lt;font style=&quot;font-size: 14px;&quot;&gt;Get a movie&lt;/font&gt;" style="edgeLabel;html=1;align=center;verticalAlign=middle;resizable=0;points=[];" parent="lyk3oRnUd4s0o-xwYm5H-9" vertex="1" connectable="0">
          <mxGeometry x="-0.0053" y="-2" relative="1" as="geometry">
            <mxPoint x="3" y="-22" as="offset" />
          </mxGeometry>
        </mxCell>
        <mxCell id="lyk3oRnUd4s0o-xwYm5H-4" value="User" style="shape=umlActor;verticalLabelPosition=bottom;verticalAlign=top;html=1;outlineConnect=0;" parent="1" vertex="1">
          <mxGeometry x="70" y="210" width="30" height="60" as="geometry" />
        </mxCell>
        <mxCell id="lyk3oRnUd4s0o-xwYm5H-15" style="edgeStyle=orthogonalEdgeStyle;rounded=0;orthogonalLoop=1;jettySize=auto;html=1;exitX=0.5;exitY=0;exitDx=0;exitDy=0;" parent="1" source="lyk3oRnUd4s0o-xwYm5H-7" target="lyk3oRnUd4s0o-xwYm5H-3" edge="1">
          <mxGeometry relative="1" as="geometry" />
        </mxCell>
        <mxCell id="lyk3oRnUd4s0o-xwYm5H-16" value="&lt;font style=&quot;font-size: 14px;&quot;&gt;Get the movie&lt;/font&gt;" style="edgeLabel;html=1;align=center;verticalAlign=middle;resizable=0;points=[];" parent="lyk3oRnUd4s0o-xwYm5H-15" vertex="1" connectable="0">
          <mxGeometry x="-0.126" relative="1" as="geometry">
            <mxPoint x="9" y="-20" as="offset" />
          </mxGeometry>
        </mxCell>
        <mxCell id="lyk3oRnUd4s0o-xwYm5H-7" value="&lt;font style=&quot;font-size: 16px;&quot;&gt;API&lt;/font&gt;&lt;div&gt;&lt;font style=&quot;font-size: 16px;&quot;&gt;&amp;nbsp;Gateway&lt;/font&gt;&lt;/div&gt;" style="rounded=0;whiteSpace=wrap;html=1;rotation=90;sketch=1;curveFitting=1;jiggle=2;" parent="1" vertex="1">
          <mxGeometry x="190" y="205" width="190" height="70" as="geometry" />
        </mxCell>
        <mxCell id="lyk3oRnUd4s0o-xwYm5H-12" style="edgeStyle=orthogonalEdgeStyle;rounded=0;orthogonalLoop=1;jettySize=auto;html=1;exitX=0.5;exitY=1;exitDx=0;exitDy=0;entryX=0.585;entryY=0.083;entryDx=0;entryDy=0;entryPerimeter=0;" parent="1" source="lyk3oRnUd4s0o-xwYm5H-3" target="lyk3oRnUd4s0o-xwYm5H-2" edge="1">
          <mxGeometry relative="1" as="geometry" />
        </mxCell>
        <mxCell id="lyk3oRnUd4s0o-xwYm5H-17" value="&lt;font style=&quot;font-size: 14px;&quot;&gt;Get the reviews for that movie&lt;/font&gt;" style="edgeLabel;html=1;align=center;verticalAlign=middle;resizable=0;points=[];" parent="lyk3oRnUd4s0o-xwYm5H-12" vertex="1" connectable="0">
          <mxGeometry x="-0.1913" y="1" relative="1" as="geometry">
            <mxPoint x="9" y="11" as="offset" />
          </mxGeometry>
        </mxCell>
      </root>
    </mxGraphModel>
  </diagram>
</mxfile>
